<svg width="1920" height="1080" viewBox="0 0 1920 1080" xmlns="http://www.w3.org/2000/svg"><rect width="1920" height="1080" fill="#0779e4"/><path d="M1475.4479015570432,563.9999999999999C1480.7635746918495,651.5342131698245,1468.2172746915458,747.7760502612389,1427.6581047363702,832.3688498547592C1387.0989347811947,916.9616494482796,1315.1867927480798,1028.842229705667,1232.0928818259904,1071.556797561122C1148.998970903901,1114.271365416577,1024.4104337283775,1116.3872336236248,929.0946392038333,1088.6562569874898C833.7788446792891,1060.9252803513548,729.6695230706329,962.7953818519351,660.1981146787255,905.1709377443119C590.7267062868181,847.5464936366888,537.3073885228998,811.3060722308078,512.266188852389,742.9095923417506C487.2249891818781,674.5131124526933,484.2955956846043,589.3494180158058,509.9509166556603,494.7920584099686C535.6062376267164,400.2346988041315,595.0098695172416,221.66903704236682,666.1981146787252,175.56543470672779C737.3863598402089,129.46183237108875,848.0979264333516,233.85748310744276,937.0803876245625,218.17044439613443C1026.0628488157733,202.4834056848261,1123.6456021088286,66.61101469893158,1200.0928818259902,81.44320243887773C1276.5401615431517,96.27539017882388,1349.871562639023,226.73743790895765,1395.7640659275319,307.16357083581136C1441.6565692160407,387.58970376266507,1470.132228422237,476.46578683017526,1475.4479015570432,563.9999999999999C1480.7635746918495,651.5342131698245,1468.2172746915458,747.7760502612389,1427.6581047363702,832.3688498547592" fill="#4da9f8"/></svg>