<svg width="1920" height="1080" viewBox="0 0 1920 1080" xmlns="http://www.w3.org/2000/svg"><rect width="1920" height="1080" fill="#0779e4"/><path d="M2199.172755330463,46.99999999999987C2197.5060886637966,149.01763493365348,2371.593186011348,340.39772678960406,2330.2310601229374,424.23106012293744C2288.868934234527,508.0643934562708,2074.9103533743123,569.0759593419202,1951,550C1827.0896466256875,530.9240406580798,1670.9356065437294,400.4419707380829,1586.7689398770626,309.7753040714162C1502.6022732103959,219.10863740474952,1451.1666666666667,116.66772736572565,1446,6.0000000000000355C1440.8333333333333,-104.66772736572557,1470.4356065437291,-288.52437904862495,1555.7689398770624,-354.23106012293744C1641.1022732103957,-419.9377411972499,1827.2563132923542,-415.96613821986716,1958,-388.24008644587497C2088.743686707646,-360.51403467188277,2300.0356009011934,-260.4147638866301,2340.2310601229374,-187.8747494789843C2380.4265193446813,-115.3347350713385,2200.8394219971296,-55.01763493365374,2199.172755330463,46.99999999999987C2197.5060886637966,149.01763493365348,2371.593186011348,340.39772678960406,2330.2310601229374,424.23106012293744" fill="#4da9f8"/></svg>